<?xml version="1.0" standalone="no"?>
<!DOCTYPE svg PUBLIC "-//W3C//DTD SVG 20010904//EN"
 "http://www.w3.org/TR/2001/REC-SVG-20010904/DTD/svg10.dtd">
<svg version="1.0" xmlns="http://www.w3.org/2000/svg"
 width="1000.000000pt" height="999.000000pt" viewBox="0 0 1000.000000 999.000000"
 preserveAspectRatio="xMidYMid meet">

<g transform="translate(0.000000,999.000000) scale(0.100000,-0.100000)"
fill="#000000" stroke="none">
<path d="M4735 9980 c-1540 -91 -2915 -849 -3806 -2098 -598 -837 -919 -1846
-919 -2887 0 -1517 681 -2937 1865 -3891 1154 -929 2668 -1295 4127 -999 412
84 783 210 1173 399 239 116 363 187 595 341 1158 770 1951 2008 2161 3378 71
463 77 955 18 1417 -182 1424 -986 2714 -2194 3517 -696 463 -1506 743 -2350
812 -185 16 -504 20 -670 11z m805 -134 c984 -118 1845 -487 2600 -1117 248
-206 556 -531 763 -806 464 -615 780 -1350 907 -2108 52 -312 64 -459 64 -820
0 -363 -12 -511 -65 -824 -173 -1020 -673 -1965 -1419 -2685 -781 -752 -1758
-1213 -2845 -1341 -187 -23 -715 -31 -912 -16 -1036 83 -1974 465 -2774 1132
-250 209 -548 523 -763 808 -461 608 -779 1346 -906 2106 -52 308 -65 469 -65
820 0 351 13 512 65 820 120 716 407 1409 828 2000 698 981 1718 1665 2883
1935 227 52 414 81 754 114 108 10 757 -3 885 -18z"/>
<path d="M4815 9784 c-515 -31 -888 -99 -1320 -240 -1225 -402 -2245 -1298
-2811 -2469 -241 -499 -385 -1004 -451 -1587 -25 -216 -25 -770 0 -986 70
-613 222 -1132 487 -1657 334 -663 801 -1225 1391 -1672 645 -490 1421 -812
2219 -922 247 -34 406 -44 670 -44 264 0 423 10 667 44 1409 194 2656 1011
3415 2234 112 181 284 521 358 705 168 423 275 851 327 1311 24 218 24 770 0
988 -67 589 -216 1104 -467 1616 -432 883 -1119 1604 -1983 2085 -566 314
-1212 513 -1862 574 -162 15 -529 27 -640 20z m658 -2331 c8 -10 52 -146 97
-302 89 -307 91 -321 39 -350 -22 -12 -31 -12 -57 -2 -37 16 -36 12 -118 299
l-67 232 -363 0 -363 0 -20 -67 c-11 -38 -43 -149 -71 -248 -53 -185 -75 -225
-119 -225 -31 0 -71 39 -71 69 0 42 157 571 176 592 16 18 39 19 469 19 418 0
453 -1 468 -17z m694 -153 c46 -27 62 -58 69 -128 l7 -62 52 0 c67 0 115 -30
133 -84 10 -31 12 -225 10 -905 -3 -809 -4 -869 -21 -894 -9 -15 -29 -35 -44
-44 -26 -17 -104 -18 -1373 -18 -1269 0 -1347 1 -1373 18 -15 9 -35 29 -44 44
-17 25 -18 85 -21 894 -3 952 -4 925 57 966 34 23 36 23 377 23 340 0 343 0
364 -22 27 -29 25 -64 -5 -93 l-24 -25 -311 0 -310 0 0 -830 0 -830 1290 0
1290 0 0 830 0 830 -310 0 -311 0 -24 25 c-30 29 -31 54 -5 88 14 18 32 27 58
29 l37 3 5 60 c7 72 20 99 63 125 28 17 51 20 182 20 131 0 154 -3 182 -20z
m-868 -28 c54 -27 71 -71 71 -180 0 -109 -15 -153 -62 -182 -31 -19 -46 -20
-316 -18 l-284 3 -33 36 c-39 43 -52 111 -41 212 7 69 24 100 69 127 30 18 52
20 297 20 233 0 269 -2 299 -18z m-135 -532 c246 -63 429 -245 492 -490 22
-85 22 -235 1 -320 -63 -243 -255 -435 -497 -496 -136 -35 -331 -14 -453 47
-341 172 -475 584 -300 922 51 99 181 229 280 280 147 76 321 97 477 57z
m-2574 -2062 l0 -182 35 41 c44 52 81 67 150 61 69 -6 102 -29 133 -91 22 -44
24 -56 23 -236 -1 -125 3 -198 10 -215 24 -51 79 -43 114 17 16 26 19 48 17
119 -8 252 90 407 257 408 102 0 168 -53 195 -157 l13 -48 42 2 c62 3 71 15
71 89 0 62 -1 64 -25 64 -33 0 -35 37 -2 42 21 3 22 8 25 95 l3 92 47 6 c26 4
55 9 65 12 15 4 17 -6 17 -101 l0 -106 50 0 c43 0 50 -3 50 -20 0 -17 -7 -20
-50 -20 l-50 0 0 -235 c0 -248 5 -281 46 -291 31 -8 81 21 101 59 13 24 18 60
19 142 4 238 97 375 253 375 108 -1 175 -55 202 -164 l12 -48 40 6 c57 9 72
20 97 68 45 88 116 137 198 138 47 0 74 -11 110 -43 l22 -20 0 26 c0 27 1 27
65 27 l65 0 0 -316 0 -315 23 6 c60 18 110 78 126 156 6 27 11 144 11 259 l0
210 65 0 65 0 0 -52 0 -53 25 37 c50 74 144 102 192 56 61 -57 -7 -153 -73
-103 -29 22 -57 18 -102 -15 l-42 -30 0 -250 0 -250 -65 0 -65 0 0 35 0 36
-37 -30 c-21 -17 -56 -37 -78 -44 l-40 -14 -7 -92 c-10 -154 -62 -221 -169
-221 -92 0 -155 77 -130 161 14 47 73 108 130 134 41 18 41 19 41 72 0 29 -3
53 -6 53 -4 0 -21 -13 -40 -30 -37 -32 -87 -45 -141 -37 -129 21 -203 147
-190 325 3 39 3 72 0 72 -3 0 -22 -5 -43 -11 l-37 -11 -6 -87 c-11 -152 -54
-249 -131 -292 -88 -50 -217 -18 -283 68 l-31 42 -27 -45 c-48 -82 -129 -111
-210 -75 -72 32 -85 70 -85 257 0 83 -2 153 -5 156 -3 2 -27 -2 -54 -10 l-49
-15 -5 -101 c-6 -122 -27 -185 -82 -242 -86 -90 -228 -79 -317 25 l-34 40 -26
-44 c-36 -58 -69 -79 -129 -79 -56 0 -93 22 -124 75 -18 30 -21 57 -25 241 -5
201 -6 207 -29 232 -51 55 -135 19 -165 -71 -13 -37 -16 -91 -16 -260 l0 -213
-65 0 -65 0 2 458 3 457 45 6 c25 3 53 7 63 7 16 2 17 -13 17 -180z m4370 0
l0 -183 24 36 c58 85 192 94 263 17 42 -45 47 -73 47 -285 1 -196 2 -203 23
-225 32 -32 70 -16 103 42 24 44 25 51 28 278 l3 232 64 0 64 0 3 -261 3 -261
29 -25 c53 -45 122 -10 145 75 6 20 11 135 11 255 l0 217 65 0 65 0 0 -316 0
-315 23 6 c60 18 104 71 121 147 10 42 17 54 34 56 26 4 27 -4 8 -77 -26 -95
-61 -133 -157 -170 -24 -9 -26 -14 -32 -98 -7 -103 -23 -146 -66 -187 -42 -40
-129 -48 -179 -16 -33 21 -62 72 -62 110 0 57 70 137 150 170 26 11 30 17 30
51 0 38 -13 52 -23 25 -3 -7 -26 -23 -51 -35 -35 -18 -55 -21 -90 -16 -55 9
-102 37 -124 75 -9 16 -19 30 -22 30 -3 -1 -14 -15 -25 -32 -47 -74 -137 -96
-202 -50 -59 42 -68 77 -71 282 -1 102 -5 195 -7 208 -8 35 -41 62 -78 62 -43
0 -75 -24 -98 -74 -16 -36 -19 -68 -19 -268 l0 -228 -65 0 -65 0 2 458 3 457
40 6 c22 3 50 7 63 8 l22 1 0 -182z m-4930 -83 c0 -25 2 -45 5 -45 3 0 19 10
35 22 71 52 200 27 253 -50 57 -82 80 -227 58 -357 -35 -200 -184 -299 -316
-209 l-35 23 0 -174 0 -174 -37 -10 c-21 -5 -50 -13 -65 -17 l-28 -6 0 521 0
521 65 0 65 0 0 -45z m4360 0 c0 -25 3 -45 6 -45 3 0 20 10 37 22 43 31 122
36 179 10 91 -40 138 -146 138 -310 0 -148 -40 -262 -108 -311 -67 -47 -174
-48 -217 -1 -10 11 -22 20 -27 20 -4 0 -8 -79 -8 -175 l0 -174 -37 -10 c-21
-5 -50 -13 -65 -17 l-28 -6 0 203 0 203 -28 -30 c-38 -42 -89 -58 -140 -44
-44 11 -55 21 -81 75 l-18 37 -22 -35 c-33 -55 -85 -82 -152 -81 -104 1 -184
74 -210 189 -17 77 -7 236 20 306 25 66 86 140 135 163 63 30 169 13 195 -31
9 -16 10 -15 11 10 0 27 1 27 65 27 l65 0 0 -237 c0 -136 5 -254 11 -276 20
-73 85 -70 126 6 16 28 18 66 21 295 l3 262 65 0 64 0 0 -45z m-1370 -1690 l0
-385 -40 0 -40 0 0 385 0 385 40 0 40 0 0 -385z m408 3 l-3 -383 -40 0 -40 0
-3 383 -2 382 45 0 45 0 -2 -382z m-3182 297 c146 -91 135 -318 -20 -397 -30
-15 -67 -22 -133 -26 l-93 -5 0 -128 0 -129 -50 0 -50 0 0 361 0 361 148 -4
c145 -3 150 -4 198 -33z m468 -71 c19 -18 21 -55 4 -72 -7 -7 -24 -12 -38 -12
-14 0 -31 5 -38 12 -7 7 -12 24 -12 38 0 14 5 31 12 38 17 17 54 15 72 -4z
m618 -210 c45 -23 45 -21 14 -53 -27 -28 -28 -29 -66 -14 -55 22 -106 10 -147
-34 -28 -29 -33 -42 -33 -85 0 -93 54 -144 145 -136 28 3 57 7 65 11 10 4 23
-5 38 -23 l23 -29 -42 -22 c-60 -30 -160 -24 -217 14 -150 99 -117 328 55 384
47 15 121 10 165 -13z m1225 -1 c40 -20 110 -111 96 -124 -4 -4 -73 -32 -153
-64 -80 -31 -149 -60 -153 -64 -4 -4 8 -22 28 -40 30 -26 44 -31 88 -31 32 0
62 6 76 16 21 15 24 15 52 -12 16 -15 29 -31 29 -34 0 -4 -22 -17 -49 -29 -40
-19 -61 -23 -119 -19 -60 3 -78 8 -114 35 -64 46 -90 102 -86 184 3 52 10 75
31 107 61 93 177 125 274 75z m1436 16 c46 -12 110 -68 127 -109 7 -17 11 -32
9 -33 -2 -2 -73 -30 -157 -63 -165 -64 -172 -71 -113 -111 39 -27 107 -31 149
-9 25 13 29 12 59 -14 25 -22 29 -31 19 -39 -52 -44 -180 -55 -245 -21 -68 34
-121 118 -121 191 0 106 107 217 210 219 14 0 42 -5 63 -11z m737 -7 c60 -30
70 -64 70 -249 l0 -163 -39 0 -40 0 -3 150 c-3 140 -4 151 -26 172 -28 28 -97
30 -136 4 -52 -34 -61 -60 -65 -198 l-3 -128 -39 0 -39 0 0 210 0 210 35 0
c34 0 34 -1 41 -50 l7 -51 24 37 c45 66 142 92 213 56z m679 -6 c37 -19 38
-25 11 -59 -20 -25 -21 -25 -57 -10 -65 27 -135 2 -173 -60 -54 -88 12 -197
118 -197 24 0 53 5 65 11 18 10 24 8 44 -15 13 -15 23 -31 23 -35 0 -18 -74
-41 -131 -41 -166 0 -267 160 -193 308 41 82 118 126 210 118 29 -2 66 -12 83
-20z m593 -3 c35 -20 83 -78 92 -108 5 -18 -12 -27 -150 -80 -167 -65 -175
-72 -115 -112 40 -27 107 -31 150 -8 27 13 30 13 57 -16 24 -25 26 -32 14 -40
-63 -43 -174 -53 -238 -20 -146 75 -163 255 -35 364 56 48 162 57 225 20z
m-5282 -193 l0 -210 -40 0 -40 0 0 210 0 210 40 0 40 0 0 -210z m1044 145 c26
-36 49 -65 51 -65 2 0 24 29 50 65 45 64 47 65 91 65 l45 0 -70 -101 -69 -101
74 -100 c41 -56 74 -105 74 -110 0 -4 -21 -8 -48 -8 -47 0 -48 0 -100 70 -29
39 -56 70 -60 70 -4 0 -29 -32 -55 -70 -48 -69 -48 -70 -94 -70 l-45 0 17 28
c10 15 45 64 77 110 l59 84 -58 79 c-97 133 -93 119 -36 119 49 0 49 0 97 -65z"/>
<path d="M5884 7166 c-3 -8 -4 -23 -2 -33 3 -16 15 -18 103 -18 l100 0 0 30 0
30 -98 3 c-78 2 -98 0 -103 -12z"/>
<path d="M4787 7143 c-4 -3 -7 -30 -7 -60 l0 -53 220 0 220 0 0 60 0 60 -213
0 c-118 0 -217 -3 -220 -7z"/>
<path d="M4913 6610 c-253 -45 -435 -259 -436 -515 -4 -476 574 -715 903 -373
231 241 186 629 -94 810 -103 67 -255 98 -373 78z m178 -50 c173 -32 330 -177
374 -345 32 -123 14 -195 -49 -195 -52 0 -66 18 -81 102 -30 174 -136 278
-304 298 -49 7 -70 14 -83 30 -25 31 -22 67 7 95 27 28 53 30 136 15z"/>
<path d="M3308 4514 c-86 -46 -128 -307 -68 -423 39 -78 131 -93 184 -30 32
38 46 84 53 181 5 70 4 78 -13 83 -41 13 -49 23 -52 64 -3 36 0 42 23 51 25 9
25 11 10 40 -26 51 -82 65 -137 34z"/>
<path d="M4170 4503 c-43 -36 -67 -96 -80 -197 -14 -116 2 -198 48 -248 57
-62 144 -42 184 41 17 34 23 69 26 139 4 87 3 92 -16 92 -52 0 -71 84 -24 105
30 13 28 31 -7 66 -39 38 -87 39 -131 2z"/>
<path d="M4738 4515 c-58 -32 -98 -139 -98 -265 0 -97 13 -143 51 -174 41 -35
88 -34 130 1 52 44 59 75 59 246 0 150 -1 155 -25 181 -28 30 -73 34 -117 11z"/>
<path d="M4823 3831 c-76 -55 -92 -103 -48 -146 29 -30 45 -31 75 -7 20 16 24
31 28 100 3 50 1 82 -5 82 -6 0 -28 -13 -50 -29z"/>
<path d="M7713 3834 c-74 -48 -94 -116 -47 -153 33 -26 45 -26 74 -3 18 15 23
31 27 100 4 49 2 82 -4 82 -5 0 -27 -12 -50 -26z"/>
<path d="M2078 4504 c-15 -8 -32 -23 -38 -34 -6 -11 -10 -101 -10 -219 l0
-200 26 -20 c41 -32 99 -28 134 9 46 49 65 120 65 240 0 124 -22 186 -77 220
-39 23 -63 25 -100 4z"/>
<path d="M5826 4509 c-36 -28 -65 -87 -82 -168 -17 -80 -18 -133 -3 -201 28
-131 146 -159 208 -50 19 34 21 54 21 217 0 175 -1 180 -23 201 -30 29 -85 29
-121 1z"/>
<path d="M6427 4490 l-37 -32 0 -203 0 -204 26 -20 c17 -13 41 -21 67 -21 82
0 137 106 137 266 0 143 -43 228 -122 240 -29 5 -41 1 -71 -26z"/>
<path d="M2005 3138 c-3 -8 -4 -68 -3 -134 l3 -119 62 -3 c38 -2 75 3 97 12
93 39 102 186 15 231 -44 23 -167 32 -174 13z"/>
<path d="M4404 2852 c-41 -26 -74 -69 -74 -98 0 -13 3 -24 8 -24 16 0 212 83
212 90 0 17 -41 42 -77 46 -27 4 -47 -1 -69 -14z"/>
<path d="M5890 2859 c-14 -6 -35 -20 -47 -31 -24 -22 -49 -85 -39 -95 8 -8
226 79 226 89 0 14 -47 39 -81 43 -19 3 -45 0 -59 -6z"/>
<path d="M7860 2859 c-14 -6 -35 -20 -47 -31 -24 -22 -49 -85 -39 -95 3 -4 55
13 115 38 92 37 108 46 100 60 -9 17 -60 39 -88 38 -9 0 -27 -5 -41 -10z"/>
</g>
</svg>
